<?xml version="1.0" encoding="UTF-8" standalone="no"?>
<!-- Created with Inkscape (http://www.inkscape.org/) -->

<svg
   xmlns:dc="http://purl.org/dc/elements/1.1/"
   xmlns:cc="http://creativecommons.org/ns#"
   xmlns:rdf="http://www.w3.org/1999/02/22-rdf-syntax-ns#"
   xmlns:svg="http://www.w3.org/2000/svg"
   xmlns="http://www.w3.org/2000/svg"
   xmlns:xlink="http://www.w3.org/1999/xlink"
   xmlns:sodipodi="http://sodipodi.sourceforge.net/DTD/sodipodi-0.dtd"
   xmlns:inkscape="http://www.inkscape.org/namespaces/inkscape"
   id="svg11037"
   height="96"
   width="96"
   version="1.1"
   inkscape:version="0.48.5 r10040"
   sodipodi:docname="menu.svg">
  <defs
     id="defs10">
    <linearGradient
       id="linearGradient3867">
      <stop
         style="stop-color:#ffffff;stop-opacity:1;"
         offset="0"
         id="stop3869" />
      <stop
         style="stop-color:#cacaca;stop-opacity:1;"
         offset="1"
         id="stop3871" />
    </linearGradient>
    <linearGradient
       id="linearGradient3859">
      <stop
         style="stop-color:#ff0000;stop-opacity:1;"
         offset="0"
         id="stop3861" />
      <stop
         style="stop-color:#ff1818;stop-opacity:1;"
         offset="1"
         id="stop3863" />
    </linearGradient>
    <linearGradient
       id="linearGradient3778">
      <stop
         style="stop-color:#1a1a1a;stop-opacity:1;"
         offset="0"
         id="stop3780" />
      <stop
         style="stop-color:#3a3a3a;stop-opacity:1;"
         offset="1"
         id="stop3782" />
    </linearGradient>
    <linearGradient
       inkscape:collect="always"
       xlink:href="#linearGradient3778"
       id="linearGradient3784"
       x1="2"
       y1="48"
       x2="94"
       y2="48"
       gradientUnits="userSpaceOnUse"
       gradientTransform="translate(-96.287637,-89.671993)" />
    <linearGradient
       inkscape:collect="always"
       xlink:href="#linearGradient3778"
       id="linearGradient3790"
       gradientUnits="userSpaceOnUse"
       gradientTransform="translate(-4,-96)"
       x1="2"
       y1="48"
       x2="94"
       y2="48" />
    <linearGradient
       inkscape:collect="always"
       xlink:href="#linearGradient3778"
       id="linearGradient3792"
       gradientUnits="userSpaceOnUse"
       gradientTransform="matrix(0,1,-1,0,96,0)"
       x1="2"
       y1="48"
       x2="94"
       y2="48" />
    <filter
       inkscape:collect="always"
       id="filter3777">
      <feGaussianBlur
         inkscape:collect="always"
         stdDeviation="1.5658781"
         id="feGaussianBlur3779" />
    </filter>
  </defs>
  <sodipodi:namedview
     pagecolor="#ffffff"
     bordercolor="#666666"
     borderopacity="1"
     objecttolerance="10"
     gridtolerance="10"
     guidetolerance="10"
     inkscape:pageopacity="0"
     inkscape:pageshadow="2"
     inkscape:window-width="1366"
     inkscape:window-height="716"
     id="namedview8"
     showgrid="false"
     inkscape:zoom="3.4766083"
     inkscape:cx="39.92902"
     inkscape:cy="35.148815"
     inkscape:window-x="0"
     inkscape:window-y="24"
     inkscape:window-maximized="1"
     inkscape:current-layer="svg11037"
     showguides="true"
     inkscape:guide-bbox="true" />
  <metadata
     id="metadata11042">
    <rdf:RDF>
      <cc:Work
         rdf:about="">
        <dc:format>image/svg+xml</dc:format>
        <dc:type
           rdf:resource="http://purl.org/dc/dcmitype/StillImage" />
        <dc:title />
      </cc:Work>
    </rdf:RDF>
  </metadata>
  <g
     id="g3803"
     transform="translate(-98.440678,-8.5084745)"
     style="filter:url(#filter3777)">
    <path
       style="opacity:0.5;fill:none;stroke:#000000;stroke-width:10.72118664"
       inkscape:connector-curvature="0"
       d="m 165.75915,53.787815 c 0,13.519196 -10.95978,24.478973 -24.47898,24.478973 -13.51919,0 -24.47897,-10.959777 -24.47897,-24.478973 0,-13.519196 10.95978,-24.478972 24.47897,-24.478972 13.5192,0 24.47898,10.959776 24.47898,24.478972 z"
       id="path3797" />
    <path
       style="opacity:0.5;fill:none;stroke:#000000;stroke-width:9.8282814;stroke-linecap:round;stroke-linejoin:round"
       inkscape:connector-curvature="0"
       d="m 175.96971,29.061215 h 0.55646 v 50.127398 h -0.55671 z"
       id="path3799" />
  </g>
  <path
     style="font-size:medium;font-style:normal;font-variant:normal;font-weight:normal;font-stretch:normal;text-indent:0;text-align:start;text-decoration:none;line-height:normal;letter-spacing:normal;word-spacing:normal;text-transform:none;direction:ltr;block-progression:tb;writing-mode:lr-tb;text-anchor:start;baseline-shift:baseline;color:#000000;fill:#ffffff;fill-opacity:1;stroke:none;stroke-width:10.72118664000000088;marker:none;visibility:visible;display:inline;overflow:visible;enable-background:accumulate;font-family:Sans;-inkscape-font-specification:Sans"
     d="M 42.84375,15.5625 C 26.427393,15.5625 13,28.989894 13,45.40625 13,61.822606 26.427394,75.25 42.84375,75.25 59.260106,75.25 72.6875,61.822606 72.6875,45.40625 72.6875,28.989894 59.260106,15.5625 42.84375,15.5625 z m 0,10.71875 c 10.622036,0 19.125,8.502964 19.125,19.125 0,10.622036 -8.502964,19.125 -19.125,19.125 -10.622038,0 -19.125,-8.502964 -19.125,-19.125 0,-10.622036 8.502963,-19.125 19.125,-19.125 z"
     id="path3497"
     inkscape:connector-curvature="0" />
  <path
     style="font-size:medium;font-style:normal;font-variant:normal;font-weight:normal;font-stretch:normal;text-indent:0;text-align:start;text-decoration:none;line-height:normal;letter-spacing:normal;word-spacing:normal;text-transform:none;direction:ltr;block-progression:tb;writing-mode:lr-tb;text-anchor:start;baseline-shift:baseline;color:#000000;fill:#ffffff;fill-opacity:1;fill-rule:nonzero;stroke:none;stroke-width:9.82828139999999983;marker:none;visibility:visible;display:inline;overflow:visible;enable-background:accumulate;font-family:Sans;-inkscape-font-specification:Sans"
     d="M 77.53125,15.75 A 4.9146321,4.9146321 0 0 0 72.625,20.65625 l 0,50.15625 a 4.9146321,4.9146321 0 0 0 4.90625,4.90625 l 0.5625,0 A 4.9146321,4.9146321 0 0 0 83,70.8125 l 0,-50.125 A 4.9146321,4.9146321 0 0 0 78.09375,15.75 l -0.5625,0 z"
     id="rect4269"
     inkscape:connector-curvature="0" />
  <path
     style="font-size:medium;font-style:normal;font-variant:normal;font-weight:normal;font-stretch:normal;text-indent:0;text-align:start;text-decoration:none;line-height:normal;letter-spacing:normal;word-spacing:normal;text-transform:none;direction:ltr;block-progression:tb;writing-mode:lr-tb;text-anchor:start;baseline-shift:baseline;color:#000000;fill:#ffffff;fill-opacity:1;stroke:none;stroke-width:10.72118664000000088;marker:none;visibility:visible;display:inline;overflow:visible;enable-background:accumulate;font-family:Sans;-inkscape-font-specification:Sans;opacity:0.18483411999999999"
     d="m 42.849984,15.558919 c -16.41635,0 -29.84375,13.427393 -29.84375,29.84375 0,0.335102 0.02015,0.667478 0.03125,1 0.53273,-15.95746 13.73125,-28.84375 29.8125,-28.84375 15.64684,0 28.57205,12.204601 29.75,27.5625 l 0,-2 c -1.17795,-15.357899 -14.10316,-27.5625 -29.75,-27.5625 z m 34.6875,0.1875 a 4.9146321,4.9146321 0 0 0 -4.9375,4.9375 l 0,1.59375 a 4.9146321,4.9146321 0 0 1 4.9375,-4.53125 l 0.5625,0 a 4.9146321,4.9146321 0 0 1 4.90625,4.9375 l 0,-2 a 4.9146321,4.9146321 0 0 0 -4.90625,-4.9375 l -0.5625,0 z m -53.75,30.65625 c -0.01696,0.332964 -0.0625,0.662554 -0.0625,1 0,10.622035 8.50297,19.125 19.125,19.125 10.62204,0 19.09375,-8.502965 19.09375,-19.125 0,-0.337446 -0.0456,-0.667036 -0.0625,-1 -0.51499,10.147989 -8.74666,18.125 -19.03125,18.125 -10.28458,0 -18.54565,-7.977011 -19.0625,-18.125 z"
     id="path3821"
     inkscape:connector-curvature="0" />
</svg>
