<?xml version="1.0" encoding="UTF-8" standalone="no"?>
<!-- Created with Inkscape (http://www.inkscape.org/) -->

<svg
   xmlns:dc="http://purl.org/dc/elements/1.1/"
   xmlns:cc="http://creativecommons.org/ns#"
   xmlns:rdf="http://www.w3.org/1999/02/22-rdf-syntax-ns#"
   xmlns:svg="http://www.w3.org/2000/svg"
   xmlns="http://www.w3.org/2000/svg"
   xmlns:xlink="http://www.w3.org/1999/xlink"
   xmlns:sodipodi="http://sodipodi.sourceforge.net/DTD/sodipodi-0.dtd"
   xmlns:inkscape="http://www.inkscape.org/namespaces/inkscape"
   id="svg2"
   height="16"
   width="16"
   version="1.1"
   inkscape:version="0.48.5 r10040"
   sodipodi:docname="notif-fb.svg">
  <sodipodi:namedview
     pagecolor="#ffffff"
     bordercolor="#666666"
     borderopacity="1"
     objecttolerance="10"
     gridtolerance="10"
     guidetolerance="10"
     inkscape:pageopacity="0"
     inkscape:pageshadow="2"
     inkscape:window-width="1366"
     inkscape:window-height="716"
     id="namedview30"
     showgrid="false"
     inkscape:zoom="9.8333333"
     inkscape:cx="25.397424"
     inkscape:cy="19.323699"
     inkscape:window-x="0"
     inkscape:window-y="24"
     inkscape:window-maximized="1"
     inkscape:current-layer="svg2" />
  <defs
     id="defs4">
    <linearGradient
       id="linearGradient3700-09">
      <stop
         id="stop3702-67"
         stop-color="#70a83e"
         offset="0" />
      <stop
         id="stop3704-18"
         stop-color="#9fd058"
         offset="1" />
    </linearGradient>
    <linearGradient
       id="linearGradient9745"
       y2="5.9877"
       xlink:href="#linearGradient3700-09"
       gradientUnits="userSpaceOnUse"
       x2="48"
       gradientTransform="translate(-169.06,968.2)"
       y1="90"
       x1="48" />
    <linearGradient
       id="linearGradient9826"
       y2="5.9877"
       gradientUnits="userSpaceOnUse"
       x2="48"
       gradientTransform="matrix(1.0855,0,0,1.0921,-5.3204,-6.0041)"
       y1="90"
       x1="48">
      <stop
         id="stop3702-1"
         stop-color="#2e4f84"
         offset="0" />
      <stop
         id="stop3704-8"
         stop-color="#4c77c5"
         offset="1" />
    </linearGradient>
    <linearGradient
       inkscape:collect="always"
       xlink:href="#linearGradient3700-09"
       id="linearGradient3007"
       gradientUnits="userSpaceOnUse"
       gradientTransform="translate(-169.06,968.2)"
       x1="48"
       y1="90"
       x2="48"
       y2="5.9877" />
    <linearGradient
       inkscape:collect="always"
       xlink:href="#linearGradient3700-09"
       id="linearGradient3015"
       gradientUnits="userSpaceOnUse"
       gradientTransform="translate(-169.06,-68.16)"
       x1="48"
       y1="90"
       x2="48"
       y2="5.9877" />
    <linearGradient
       inkscape:collect="always"
       xlink:href="#linearGradient3700-09"
       id="linearGradient3018"
       gradientUnits="userSpaceOnUse"
       gradientTransform="translate(-169.06,-68.16)"
       x1="48"
       y1="90"
       x2="48"
       y2="5.9877" />
    <linearGradient
       inkscape:collect="always"
       xlink:href="#linearGradient9826"
       id="linearGradient3027"
       gradientUnits="userSpaceOnUse"
       gradientTransform="matrix(1.0855,0,0,1.0921,129.32367,-18.20749)"
       x1="48"
       y1="90"
       x2="48"
       y2="5.9877" />
    <linearGradient
       inkscape:collect="always"
       xlink:href="#linearGradient9826"
       id="linearGradient3037"
       gradientUnits="userSpaceOnUse"
       gradientTransform="matrix(1.0855,0,0,1.0921,129.32367,-18.20749)"
       x1="48"
       y1="90"
       x2="48"
       y2="5.9877" />
    <linearGradient
       inkscape:collect="always"
       xlink:href="#linearGradient9826"
       id="linearGradient3042"
       gradientUnits="userSpaceOnUse"
       gradientTransform="matrix(0.20114889,0,0,0.20237191,31.689249,-11.32245)"
       x1="48"
       y1="90"
       x2="48"
       y2="5.9877" />
  </defs>
  <metadata
     id="metadata7">
    <rdf:RDF>
      <cc:Work
         rdf:about="">
        <dc:format>image/svg+xml</dc:format>
        <dc:type
           rdf:resource="http://purl.org/dc/dcmitype/StillImage" />
        <dc:title />
      </cc:Work>
    </rdf:RDF>
  </metadata>
  <rect
     style="fill:none;display:none"
     x="-369.64001"
     y="-64.680008"
     width="107.79"
     height="107.79"
     display="none"
     id="rect4772" />
  <g
     style="display:none"
     transform="matrix(0.21052,0,0,0.21052,-369.68,-64.73)"
     display="none"
     id="g4788" />
  <g
     style="display:none"
     transform="matrix(0.21052,0,0,0.21052,-369.68,-64.73)"
     display="none"
     id="g4806">
    <g
       style="display:inline"
       display="inline"
       id="g4808">
      <path
         style="fill:#050505;display:none"
         inkscape:connector-curvature="0"
         display="none"
         d="m 349.1,256.65 c -0.265,-0.254 37.637,27.605 39.421,25.012 6.362,-9.252 82.046,-93.137 84.784,-116.24 0.242,-2.003 -0.516,-4.096 -0.516,-4.096 0,0 -1.19,-0.144 -6.325,-4.314 -2.692,-2.192 -5.483,-4.581 -5.483,-4.581 -16.054,0.998 -57.885,41.559 -111.06,103.57"
         id="path4810" />
    </g>
  </g>
  <rect
     style="fill:url(#linearGradient3018);display:none"
     x="-163.06"
     y="-62.159988"
     display="none"
     width="84"
     height="84"
     ry="6"
     rx="6"
     id="rect3873" />
  <rect
     style="fill:url(#linearGradient3015);display:none"
     x="-163.06"
     y="-62.159988"
     display="none"
     width="84"
     height="84"
     ry="6"
     rx="6"
     id="rect3880" />
  <path
     style="fill:#ffffff"
     d="M 2.3125,-5e-8 C 1.059281,-5e-8 0.03125,0.99687285 0.03125,2.25 l 0,11.46875 C 0.03125,14.97197 1.059244,16 2.3125,16 l 11.40625,0 c 1.25322,0 2.25,-1.02803 2.25,-2.28125 l 0,-11.4687501 C 15.96875,0.99678025 14.97197,-5.0000001e-8 13.71875,-5.0000001e-8 l -11.40625,0 z m 8.28125,2.96875005 1.875,0 0,2.3124999 -1.1875,0 c -0.87566,0 -0.9375,0.3349428 -0.9375,0.9375 l 0,1.0312501 2.125,0 -0.25,2.4374999 -1.875,0 0,6.1875001 -2.8125,0 0,-6.1875001 -1.5,0 0,-2.4374999 1.5,0 0,-1.2500001 c 0,-1.8845547 0.813413,-3.0312499 3.0625,-3.0312499 z"
     id="rect2419"
     inkscape:connector-curvature="0" />
  <g
     transform="matrix(0.03901047,0,0,0.03901047,-60.778771,-5.1188936)"
     id="g4796" />
</svg>
