<?xml version="1.0" encoding="UTF-8" standalone="no"?>
<!-- Created with Inkscape (http://www.inkscape.org/) -->

<svg
   xmlns:dc="http://purl.org/dc/elements/1.1/"
   xmlns:cc="http://creativecommons.org/ns#"
   xmlns:rdf="http://www.w3.org/1999/02/22-rdf-syntax-ns#"
   xmlns:svg="http://www.w3.org/2000/svg"
   xmlns="http://www.w3.org/2000/svg"
   xmlns:sodipodi="http://sodipodi.sourceforge.net/DTD/sodipodi-0.dtd"
   xmlns:inkscape="http://www.inkscape.org/namespaces/inkscape"
   id="svg3869"
   height="16"
   width="16"
   version="1.1"
   inkscape:version="0.48.5 r10040"
   sodipodi:docname="notif-mail.svg">
  <defs
     id="defs8" />
  <sodipodi:namedview
     pagecolor="#ffffff"
     bordercolor="#666666"
     borderopacity="1"
     objecttolerance="10"
     gridtolerance="10"
     guidetolerance="10"
     inkscape:pageopacity="0"
     inkscape:pageshadow="2"
     inkscape:window-width="1366"
     inkscape:window-height="716"
     id="namedview6"
     showgrid="false"
     inkscape:zoom="10.727273"
     inkscape:cx="-0.46610169"
     inkscape:cy="11"
     inkscape:window-x="0"
     inkscape:window-y="24"
     inkscape:window-maximized="1"
     inkscape:current-layer="svg3869" />
  <metadata
     id="metadata3874">
    <rdf:RDF>
      <cc:Work
         rdf:about="">
        <dc:format>image/svg+xml</dc:format>
        <dc:type
           rdf:resource="http://purl.org/dc/dcmitype/StillImage" />
        <dc:title />
      </cc:Work>
    </rdf:RDF>
  </metadata>
  <g
     id="layer1"
     transform="matrix(0.8,0,0,0.8,-261.6,-428.288)"
     style="fill:#ffffff">
    <path
       id="rect4144"
       style="fill:#ffffff"
       d="M 1,3 V 4 18 18.414 19 H 2 21 V 18.414 18 17 3 H 20.951 20 2.463 2 1 z M 2,4 H 2.0488 L 8.0234,9.9766 2,16 V 4 z m 1.4629,0 h 15.074 L 10.9999,11.537 3.4628,4 z m 16.488,0 h 0.049 V 16 L 13.9769,9.9766 19.9509,4 z m -11.22,6.684 2.2695,2.267 2.27,-2.267 6.267,6.267 0.463,0.463 V 18 h -18 v -0.586 l 0.4629,-0.463 6.2676,-6.267 z"
       transform="translate(326,534.36)"
       inkscape:connector-curvature="0" />
  </g>
</svg>
